<?xml version="1.0" standalone="no"?>
<!DOCTYPE svg PUBLIC "-//W3C//DTD SVG 20010904//EN"
 "http://www.w3.org/TR/2001/REC-SVG-20010904/DTD/svg10.dtd">
<svg version="1.0" xmlns="http://www.w3.org/2000/svg"
 width="1296.000000pt" height="1296.000000pt" viewBox="0 0 1296.000000 1296.000000"
 preserveAspectRatio="xMidYMid meet">
<metadata>
Created by potrace 1.14, written by Peter Selinger 2001-2017
</metadata>
<g transform="translate(0.000000,1296.000000) scale(0.100000,-0.100000)"
fill="#000000" stroke="none">
<path d="M3299 12956 c-2 -2 -56 -7 -119 -10 -115 -7 -161 -11 -255 -21 -89
-10 -224 -29 -285 -40 -14 -3 -38 -7 -55 -10 -16 -3 -41 -7 -55 -10 -14 -3
-40 -8 -59 -11 -19 -2 -37 -6 -41 -9 -4 -2 -20 -7 -36 -9 -31 -6 -59 -12 -96
-22 -13 -3 -30 -7 -38 -9 -8 -2 -15 -4 -15 -5 0 -2 -20 -7 -59 -15 -16 -3 -39
-11 -50 -17 -12 -6 -21 -10 -21 -8 0 3 -91 -24 -125 -37 -8 -4 -18 -7 -22 -8
-5 -2 -9 -3 -10 -5 -2 -1 -10 -3 -18 -5 -8 -2 -28 -8 -45 -15 -16 -6 -30 -10
-30 -9 0 1 -11 -4 -25 -11 -14 -8 -27 -15 -30 -15 -10 -3 -66 -28 -112 -51
-27 -13 -48 -21 -48 -18 0 4 -6 2 -13 -4 -11 -10 -151 -85 -214 -116 -13 -6
-23 -14 -23 -18 0 -5 -7 -8 -15 -8 -8 0 -15 -4 -15 -9 0 -5 -8 -12 -17 -15
-31 -11 -98 -55 -128 -83 -8 -7 -16 -13 -20 -13 -4 0 -12 -6 -20 -12 -7 -7
-25 -22 -40 -32 -14 -11 -34 -27 -45 -35 -10 -9 -37 -32 -60 -51 -152 -126
-339 -339 -457 -520 -23 -36 -46 -69 -51 -75 -14 -17 -76 -127 -124 -220 -96
-188 -223 -533 -262 -715 -3 -14 -14 -61 -24 -105 -20 -86 -48 -235 -57 -300
-3 -22 -7 -51 -10 -65 -3 -14 -7 -45 -10 -70 -9 -84 -15 -145 -20 -181 -17
-147 -20 -611 -20 -3439 0 -2796 3 -3309 19 -3470 2 -19 7 -65 10 -101 4 -36
9 -76 11 -90 2 -13 6 -44 9 -69 3 -25 8 -55 10 -66 2 -12 7 -39 11 -60 7 -45
13 -79 20 -114 3 -14 7 -36 10 -50 8 -43 13 -63 30 -135 9 -38 18 -77 20 -85
2 -8 8 -27 14 -42 6 -16 8 -28 6 -28 -3 0 1 -16 9 -35 9 -20 15 -38 16 -40 0
-3 1 -7 1 -10 1 -3 2 -8 3 -12 3 -12 27 -86 33 -103 4 -8 7 -18 8 -22 2 -5 4
-10 5 -13 1 -3 3 -8 4 -12 4 -20 70 -181 98 -241 17 -37 32 -69 32 -72 1 -3
10 -21 22 -40 11 -19 29 -54 40 -77 10 -24 22 -43 27 -43 4 0 7 -6 7 -13 0 -7
16 -36 35 -64 19 -29 35 -56 35 -61 0 -5 9 -17 20 -27 11 -10 20 -22 20 -27 0
-5 6 -15 13 -22 6 -8 19 -24 27 -36 8 -12 21 -28 27 -36 7 -7 13 -15 13 -18 0
-3 8 -15 18 -27 43 -51 56 -68 105 -124 100 -114 242 -248 352 -329 22 -17 42
-33 45 -36 19 -24 295 -193 405 -248 287 -144 776 -296 1055 -328 25 -2 52 -7
60 -9 16 -5 225 -32 250 -33 8 0 40 -3 70 -6 30 -4 100 -10 155 -14 136 -10
6450 -9 6595 1 63 4 133 10 155 12 22 2 65 7 95 10 57 5 90 10 163 20 67 10
108 16 130 21 12 2 39 6 61 10 22 3 43 7 46 9 3 2 25 6 50 10 25 4 47 8 51 10
3 2 19 7 35 9 39 8 64 13 132 30 9 3 49 14 87 26 39 11 81 23 95 26 13 3 30
10 37 16 7 6 13 8 13 4 0 -4 13 0 30 9 16 8 32 15 35 15 3 0 6 0 8 1 1 0 9 2
17 4 8 2 29 8 45 15 17 6 30 10 30 9 0 -1 11 4 25 11 14 8 27 15 30 15 3 1 19
8 35 15 17 7 32 14 35 14 11 2 265 130 270 136 3 4 20 13 38 21 17 8 32 17 32
21 0 5 7 8 15 8 8 0 15 4 15 9 0 5 8 12 18 15 30 11 97 55 127 84 8 6 16 12
20 12 4 0 12 6 19 13 7 6 25 21 41 32 15 11 38 29 51 40 12 11 49 43 80 70 94
81 223 215 289 300 17 21 40 50 51 64 12 14 47 64 78 111 30 47 59 90 64 95
15 18 77 128 124 220 101 197 227 546 272 755 3 14 15 66 26 115 11 50 23 106
26 125 13 86 26 167 29 195 12 89 15 115 21 170 3 33 7 71 10 84 2 14 7 77 11
140 10 152 10 6438 0 6601 -8 126 -11 169 -23 270 -3 30 -7 69 -9 87 -4 37
-14 100 -19 130 -3 11 -7 38 -11 59 -7 45 -13 79 -20 114 -3 14 -7 36 -10 50
-3 14 -7 36 -10 50 -3 14 -8 34 -10 45 -14 62 -23 98 -25 105 -1 3 -2 8 -1 12
0 4 -6 23 -14 42 -9 20 -15 39 -16 43 0 17 -11 60 -22 88 -6 17 -12 35 -13 40
-4 24 -58 171 -67 183 -5 6 -6 12 -2 12 4 0 0 11 -9 25 -9 14 -14 25 -11 25 4
0 0 12 -8 28 -8 15 -45 90 -83 167 -37 77 -71 142 -74 145 -4 3 -13 20 -21 38
-8 17 -17 32 -21 32 -5 0 -8 7 -8 15 0 8 -4 15 -9 15 -5 0 -12 11 -15 25 -4
14 -11 25 -16 25 -6 0 -10 7 -10 15 0 8 -4 15 -8 15 -5 0 -18 17 -30 38 -11
21 -29 47 -39 59 -10 12 -27 33 -38 47 -106 136 -200 236 -321 346 -61 55
-131 112 -153 124 -9 5 -22 16 -29 23 -28 28 -241 162 -342 216 -309 164 -800
324 -1119 363 -20 2 -58 8 -86 13 -27 6 -72 13 -100 16 -48 6 -66 7 -205 21
-36 3 -90 8 -120 11 -60 7 -6494 15 -6501 9z"/>
</g>
</svg>
