<svg height="40" viewBox="0 0 40 40" width="40" xmlns="http://www.w3.org/2000/svg"><path d="m45 25c11.045695 0 20 8.954305 20 20s-8.954305 20-20 20-20-8.954305-20-20 8.954305-20 20-20zm0 3.125-.0010029 6.875c-5.5223866.000542-9.9989971 4.4774868-9.9989971 10 0 5.5228475 4.4771525 10 10 10h-.001l.001 6.875c9.2102112-.2411422 16.6990307-7.3861221 16.871944-16.5507132l.003056-.3242868c0-9.3198052-7.5551948-16.875-16.875-16.875zm0 6.875c5.5228475 0 10 4.4771525 10 10s-4.4771525 10-10 10h-.001l-.0000029-20z" fill="#fff" fill-opacity=".5" fill-rule="evenodd" transform="translate(-25 -25)"/></svg>