<?xml version="1.0" encoding="UTF-8"?>
<svg width="203px" height="52px" viewBox="0 0 203 52" version="1.1" xmlns="http://www.w3.org/2000/svg" xmlns:xlink="http://www.w3.org/1999/xlink">
    <title>Download_on_the_Mac_App_Store_Badge_US-UK_RGB_wht_092917</title>
    <g id="Web" stroke="none" stroke-width="1" fill="none" fill-rule="evenodd">
        <g id="Artboard" transform="translate(-732.000000, -640.000000)" fill-rule="nonzero">
            <g id="Group-4" transform="translate(301.000000, 387.000000)">
                <g id="Download_on_the_Mac_App_Store_Badge_US-UK_RGB_wht_092917" transform="translate(431.000000, 253.000000)">
                    <g id="Group">
                        <path d="M190.54198,0 L12.3950437,0 C11.9183353,0 11.4473468,0 10.9718993,0.002768991 C10.5739056,0.00536898255 10.1790839,0.012921958 9.77726822,0.0192789373 C8.90433884,0.0295512487 8.0334623,0.106347792 7.17220669,0.249001191 C6.31216079,0.394760133 5.47905646,0.669557286 4.70107072,1.06409854 C3.92403659,1.46197766 3.21403822,1.97898052 2.59683256,2.59635156 C1.97638682,3.21198665 1.45919739,3.92357754 1.06515154,4.70376171 C0.670018137,5.48239304 0.396031361,6.31676825 0.252654179,7.17806967 C0.107913873,8.03828325 0.0300277972,8.90841675 0.019694936,9.78066121 C0.0076309752,10.1792399 0.00635697934,10.5791446 0,10.9777753 L0,41.0262157 C0.00635697934,41.4298644 0.0076309752,41.8209031 0.019681936,42.2246818 C0.0300179659,43.096883 0.107904043,43.966973 0.252641179,44.8271433 C0.395622453,45.6889482 0.669625429,46.5238024 1.06513854,47.3027253 C1.45900942,48.0803874 1.97627601,48.7890975 2.59683256,49.4013084 C3.21169798,50.0214245 3.92215528,50.5387791 4.70107072,50.9336135 C5.47905056,51.3292107 6.31206506,51.6056435 7.17220669,51.7536508 C8.03360872,51.8951615 8.90439569,51.9719892 9.77726822,51.9834901 C10.1790839,51.99233 10.5739056,51.9974 10.9718993,51.9974 C11.4473338,52 11.9183613,52 12.3950437,52 L190.54198,52 C191.009198,52 191.483957,52 191.951175,51.9974 C192.347284,51.9974 192.753533,51.99233 193.149641,51.9834901 C194.020864,51.9726009 194.890011,51.8957683 195.749633,51.7536508 C196.612549,51.6046016 197.44855,51.328242 198.230285,50.9336135 C199.008498,50.5385507 199.718299,50.0212102 200.332638,49.4013084 C200.951589,48.7866988 201.469955,48.0785072 201.868713,47.3027253 C202.261258,46.5232358 202.532653,45.6884484 202.67354,44.8271433 C202.818509,43.966855 202.899159,43.0969585 202.91482,42.2246818 C202.91989,41.8209031 202.91989,41.4298644 202.91989,41.0262157 C202.930029,40.5539272 202.930029,40.0842387 202.930029,39.6042803 L202.930029,12.3970977 C202.930029,11.9210263 202.930029,11.4487638 202.91989,10.9777753 C202.91989,10.5791446 202.91989,10.1792399 202.91482,9.78060921 C202.899162,8.90828923 202.818512,8.03834925 202.67354,7.17801767 C202.53226,6.31721455 202.260881,5.48290544 201.868713,4.70370971 C201.066257,3.1399137 199.793794,1.86699595 198.230285,1.06398154 C197.448548,0.670404415 196.612457,0.395680247 195.749633,0.248884191 C194.89016,0.105602275 194.020922,0.0287790008 193.149641,0.0190969379 C192.753533,0.0127529586 192.347284,0.00513498331 191.951175,0.00259999155 C191.483957,0 191.009198,0 190.54198,0 L190.54198,0 Z" id="Path" fill="#000000"></path>
                        <path d="M10.9782433,50.8625037 C10.5821606,50.8625037 10.1955809,50.8574337 9.80267014,50.8485937 C8.98858909,50.8379867 8.17641075,50.7671166 7.37279604,50.6365644 C6.62346587,50.5075115 5.89756635,50.2674494 5.21904104,49.9242967 C4.54673744,49.5839873 3.93354251,49.137764 3.40294694,48.602721 C2.86467112,48.0739806 2.4165319,47.4607319 2.07628825,46.7872769 C1.73229503,46.1094452 1.49423149,45.382891 1.37039055,44.6329239 C1.23665205,43.827076 1.1642943,43.0122365 1.15394125,42.1954319 C1.14569928,41.9212628 1.13490931,41.0084057 1.13490931,41.0084057 L1.13490931,10.9777753 C1.13490931,10.9777753 1.14640127,10.0789452 1.15400625,9.8148771 C1.16391944,8.9993664 1.23585643,8.18579138 1.36919455,7.38119401 C1.49326488,6.62917266 1.73151268,5.90052351 2.07569025,5.22047103 C2.41468362,4.54748134 2.86033483,3.93377474 3.39536797,3.40314194 C3.9297999,2.86746753 4.54495632,2.41894649 5.21840404,2.07393526 C5.89536991,1.73188506 6.61989756,1.49351645 7.36771305,1.36681556 C8.17396697,1.23495197 8.98896488,1.16366013 9.80586813,1.15353825 L10.9788803,1.1376653 L191.944792,1.1376653 L193.131818,1.15417525 C193.941291,1.16379417 194.748885,1.23445 195.54773,1.36554156 C196.303116,1.49383173 197.035195,1.73386356 197.719893,2.07774425 C199.069053,2.77304185 200.166838,3.87306825 200.859383,5.22364302 C201.198068,5.89900066 201.432641,6.62170626 201.555141,7.36723206 C201.690066,8.17843122 201.76558,8.99839959 201.78108,9.82059708 C201.78485,10.1887559 201.78485,10.5842146 201.78485,10.9777753 C201.79512,11.4652737 201.79512,11.9292812 201.79512,12.3970977 L201.79512,39.6042803 C201.79512,40.0765688 201.79512,40.5374173 201.78485,41.0020357 C201.78485,41.4247944 201.78485,41.8120631 201.77978,42.2106418 C201.764616,43.0181676 201.690361,43.8235001 201.557611,44.620184 C201.436308,45.375561 201.199541,46.1077862 200.855613,46.7911769 C200.512964,47.4573222 200.067399,48.0652588 199.535338,48.5925811 C199.004265,49.1304994 198.389988,49.5793334 197.716123,49.9218268 C197.033322,50.2676174 196.302321,50.5085672 195.54773,50.6365644 C194.744177,50.7678133 193.93192,50.838688 193.117778,50.8485937 C192.73701,50.8574337 192.338301,50.8625037 191.951162,50.8625037 L190.541967,50.8651037 L10.9782433,50.8625037 Z" id="Path" fill="#FFFFFF"></path>
                    </g>
                    <g id="Group" transform="translate(45.952459, 23.230067)" fill="#000000">
                        <polygon id="Path" points="14.0409814 16.4131357 14.0409814 4.53099227 13.9622666 4.53099227 9.09616144 16.2899741 7.23884447 16.2899741 2.36005133 4.53099227 2.28258458 4.53099227 2.28258458 16.4131357 -9.23702554e-15 16.4131357 -9.23702554e-15 0.269190125 2.89832758 0.269190125 8.1224256 13.0120737 8.21129331 13.0120737 13.4252384 0.269190125 16.3337189 0.269190125 16.3337189 16.4131357"></polygon>
                        <path d="M18.2621326,13.0679345 C18.2621326,11.0100412 19.8388845,9.76716726 22.6369174,9.5995458 L25.858983,9.41991239 L25.858983,8.52489129 C25.858983,7.21600355 24.9969688,6.47713795 23.5306905,6.47713795 C22.407022,6.32769678 21.3477127,7.03770821 21.0589176,8.13386556 L18.7991609,8.13386556 C18.8664487,6.00741048 20.8469142,4.49794638 23.5979783,4.49794638 C26.4061772,4.49794638 28.2634941,6.0302644 28.2634941,8.34593388 L28.2634941,16.4131487 L25.9478767,16.4131487 L25.9478767,14.4771039 L25.8919769,14.4771039 C25.1366453,15.8141605 23.7129146,16.6335606 22.1773689,16.614973 C21.1761307,16.7129411 20.1800637,16.3836505 19.4345078,15.7082083 C18.6889519,15.0327662 18.2632051,14.0739537 18.2621326,13.0679345 L18.2621326,13.0679345 Z M25.859009,12.005344 L25.859009,11.0988959 L22.9606554,11.2779053 C21.5172051,11.3680471 20.7008987,11.993917 20.7008987,13.0006597 C20.7008987,14.0302564 21.551486,14.7018212 22.8489337,14.7018212 C23.608084,14.7533229 24.3558567,14.4960369 24.9226016,13.9883345 C25.4893466,13.4806322 25.8270187,12.7655534 25.859009,12.005331 L25.859009,12.005344 Z" id="Shape"></path>
                        <path d="M38.4082842,8.69249975 C38.1892741,7.35754543 36.9827681,6.41387332 35.6343662,6.5228718 C33.7770492,6.5228718 32.5468762,8.07804375 32.5468762,10.5288608 C32.5468762,13.0349016 33.7884762,14.5443787 35.6559461,14.5443787 C36.9878107,14.6777584 38.1935244,13.7517713 38.4082842,12.4305856 L40.7352766,12.4305856 C40.4342088,14.9613931 38.1723467,16.7920603 35.6343662,16.5590732 C32.2777771,16.5590732 30.0852692,14.2650356 30.0852692,10.5288218 C30.0852692,6.86941167 32.2777381,4.49793338 35.6115513,4.49793338 C38.1683605,4.28111605 40.4319316,6.14198747 40.7137747,8.69244775 L38.4082842,8.69249975 Z" id="Path"></path>
                        <path d="M56.4342986,12.0497648 L50.2808986,12.0497648 L48.8031674,16.4131357 L46.1968319,16.4131357 L52.0252329,0.269190125 L54.7331241,0.269190125 L60.5615252,16.4131357 L57.9107038,16.4131357 L56.4342986,12.0497648 Z M50.9182085,10.0362924 L55.7957927,10.0362924 L53.3913075,2.9542404 L53.3240197,2.9542404 L50.9182085,10.0362924 Z" id="Shape"></path>
                        <path d="M73.1488903,10.5288738 C73.1488903,14.1863859 71.1912786,16.5362713 68.2370902,16.5362713 C66.710096,16.616149 65.271751,15.8163475 64.5338833,14.4770779 L64.4779834,14.4770779 L64.4779834,20.30674 L62.0621103,20.30674 L62.0621103,4.64271391 L64.4005817,4.64271391 L64.4005817,6.60032555 L64.4450156,6.60032555 C65.2156618,5.26945005 66.6555592,4.46999207 68.1926564,4.51956531 C71.1798517,4.51956531 73.1488903,6.88089064 73.1488903,10.5288738 Z M70.6656903,10.5288738 C70.6656903,8.14533153 69.4342433,6.57874562 67.5553464,6.57874562 C65.7094564,6.57874562 64.4678565,8.17835142 64.4678565,10.5288738 C64.4678565,12.9003521 65.7094564,14.4885309 67.5553464,14.4885309 C69.4342563,14.4885309 70.6656903,12.933385 70.6656903,10.5288738 Z" id="Shape"></path>
                        <path d="M86.1031402,10.5288738 C86.1031402,14.1863859 84.1455285,16.5362713 81.1913401,16.5362713 C79.6643459,16.616149 78.2260009,15.8163475 77.4881332,14.4770779 L77.4322333,14.4770779 L77.4322333,20.30674 L75.0163212,20.30674 L75.0163212,4.64271391 L77.3547926,4.64271391 L77.3547926,6.60032555 L77.3992265,6.60032555 C78.1698748,5.26945217 79.6097708,4.46999496 81.1468673,4.51956531 C84.1341016,4.51956531 86.1031402,6.88089064 86.1031402,10.5288738 Z M83.6199532,10.5288738 C83.6199532,8.14533153 82.3884932,6.57874562 80.5095963,6.57874562 C78.6637063,6.57874562 77.4221064,8.17835142 77.4221064,10.5288738 C77.4221064,12.9003521 78.6637063,14.4885309 80.5095963,14.4885309 C82.3885062,14.4885309 83.6199532,12.933385 83.6199532,10.5288738 L83.6199532,10.5288738 Z" id="Shape"></path>
                        <path d="M94.6648343,11.9152023 C94.8438438,13.5160821 96.3990287,14.5671937 98.5241968,14.5671937 C100.560523,14.5671937 102.025553,13.5160301 102.025553,12.0725668 C102.025553,10.8195398 101.141959,10.0692733 99.0497851,9.55509895 L96.9576109,9.05046659 C93.9932695,8.33445491 92.617094,6.94812642 92.617094,4.69852273 C92.617094,1.91317778 95.0444331,0 98.4911899,0 C101.902379,0 104.240876,1.91317778 104.319591,4.69852273 L101.880799,4.69852273 C101.734809,3.08748997 100.403068,2.11504113 98.456883,2.11504113 C96.5106983,2.11504113 95.1789567,3.09892993 95.1789567,4.53095327 C95.1789567,5.67225857 96.0295569,6.34383638 98.1103041,6.85794571 L99.8889064,7.29466629 C103.201101,8.07796575 104.577276,9.40845942 104.577276,11.7703827 C104.577276,14.7905849 102.171517,16.6821828 98.3451614,16.6821828 C94.76509,16.6821828 92.3479169,14.8350188 92.1917614,11.9150983 L94.6648343,11.9152023 Z" id="Path"></path>
                        <path d="M109.791247,1.85742096 L109.791247,4.64276591 L112.029424,4.64276591 L112.029424,6.55594369 L109.791247,6.55594369 L109.791247,13.0451326 C109.791247,14.0531363 110.239395,14.5228638 111.223271,14.5228638 C111.488979,14.5182305 111.754257,14.4995713 112.017997,14.466964 L112.017997,16.3687148 C111.575645,16.451368 111.126032,16.4888012 110.676102,16.4804364 C108.29321,16.4804364 107.363908,15.5854153 107.363908,13.3028048 L107.363908,6.55589169 L105.652581,6.55589169 L105.652581,4.64271391 L107.363908,4.64271391 L107.363908,1.85742096 L109.791247,1.85742096 Z" id="Path"></path>
                        <path d="M113.324324,10.5288738 C113.324324,6.82502982 115.505366,4.49798538 118.906441,4.49798538 C122.318929,4.49798538 124.489818,6.82497782 124.489818,10.5288738 C124.489818,14.2422467 122.330356,16.5591252 118.906441,16.5591252 C115.483812,16.5591252 113.324324,14.2422467 113.324324,10.5288738 Z M122.028224,10.5288738 C122.028224,7.98791504 120.864039,6.48860391 118.906428,6.48860391 C116.948816,6.48860391 115.784657,7.999342 115.784657,10.5288738 C115.784657,13.0793485 116.948816,14.5672457 118.906428,14.5672457 C120.864039,14.5672457 122.028224,13.0793485 122.028224,10.5288738 L122.028224,10.5288738 Z" id="Shape"></path>
                        <path d="M126.481711,4.64271391 L128.785914,4.64271391 L128.785914,6.6460074 L128.841814,6.6460074 C129.163142,5.35639652 130.344782,4.4688415 131.672854,4.51955231 C131.951266,4.51858021 132.228911,4.54881619 132.500587,4.60969402 L132.500587,6.86945067 C132.149109,6.76204934 131.782456,6.71273786 131.415091,6.72346115 C130.704836,6.69464731 130.017467,6.97770747 129.533466,7.4983184 C129.049465,8.01892932 128.817188,8.72507861 128.897623,9.43135235 L128.897623,16.4131227 L126.481711,16.4131227 L126.481711,4.64271391 Z" id="Path"></path>
                        <path d="M143.63938,12.9562129 C143.314381,15.0928209 141.233621,16.5591252 138.571425,16.5591252 C135.147509,16.5591252 133.022328,14.2650876 133.022328,10.5847346 C133.022328,6.8923176 135.158936,4.49798538 138.469869,4.49798538 C141.726202,4.49798538 143.773956,6.73488811 143.773956,10.3041695 L143.773956,11.1319028 L135.461094,11.1319028 L135.461094,11.2778923 C135.383481,12.1541306 135.686047,13.021485 136.29183,13.6593285 C136.897613,14.2971721 137.748225,14.6440277 138.627298,14.6116665 C139.79969,14.7215156 140.905025,14.0482973 141.345356,12.9561999 L143.63938,12.9562129 Z M135.472508,9.44279231 L141.35677,9.44279231 C141.400613,8.65543361 141.114004,7.88547938 140.565995,7.31843223 C140.017987,6.75138507 139.258265,6.43865861 138.469869,6.45559702 C137.67524,6.45085844 136.91164,6.7637313 136.34879,7.32467448 C135.78594,7.88561765 135.470478,8.64815221 135.472508,9.44279231 L135.472508,9.44279231 Z" id="Shape"></path>
                    </g>
                    <g id="Group" transform="translate(12.491728, 10.201132)" fill="#000000">
                        <g id="_Group_" transform="translate(0.000000, 0.000000)">
                            <g id="_Group_3" transform="translate(0.000000, -0.000000)">
                                <path d="M20.0038897,15.6551081 C20.0334389,13.361716 21.2357657,11.2433201 23.1896333,10.0421034 C21.9514269,8.27372691 19.9518632,7.1927343 17.7941439,7.12522484 C15.5240392,6.88693562 13.3232894,8.48361643 12.1664622,8.48361643 C10.987275,8.48361643 9.20620278,7.14888477 7.28826701,7.18833964 C4.76477908,7.26986894 2.46923464,8.66983732 1.24150566,10.8760377 C-1.37292884,15.4026229 0.577207821,22.0552083 3.08166268,25.7141894 C4.33470261,27.5058826 5.79913485,29.5072391 7.71534162,29.4362723 C9.59045553,29.3584936 10.2907763,28.2405752 12.5541859,28.2405752 C14.7966006,28.2405752 15.4536315,29.4362723 17.4087211,29.3911495 C19.4208156,29.3584936 20.6885065,27.5915003 21.8976065,25.7828422 C22.7979145,24.5061989 23.4906996,23.0952294 23.9502999,21.6021988 C21.5605477,20.5914513 20.0066708,18.2498177 20.0038897,15.6551081 Z" id="_Path_"></path>
                                <path d="M16.3111217,4.71884166 C17.4082024,3.40184872 17.9486948,1.70907209 17.8178168,-2.30925639e-15 C16.1417368,0.176038836 14.5935081,0.977095352 13.4816159,2.24355871 C12.3836719,3.49309657 11.8274566,5.1278274 11.9354789,6.78769394 C13.6340252,6.80517804 15.2467581,6.04266011 16.3111217,4.71884166 Z" id="_Path_2"></path>
                            </g>
                        </g>
                        <g id="_Group_4" transform="translate(33.880318, 0.767102)">
                            <g id="Group" transform="translate(0.000000, 0.000000)">
                                <path d="M2.80184189,0.382198758 C3.82746908,0.308598433 4.83204824,0.698809385 5.53907568,1.44542866 C6.24610311,2.19204794 6.58105425,3.21637777 6.45173603,4.23647823 C6.45173603,6.71459518 5.11238938,8.13906555 2.80184189,8.13906555 L9.23702554e-15,8.13906555 L9.23702554e-15,0.382198758 L2.80184189,0.382198758 Z M1.20477108,7.04207711 L2.66726633,7.04207711 C3.40023248,7.08588958 4.11392311,6.79710462 4.61017309,6.255907 C5.10642306,5.71470937 5.33240016,4.97871656 5.22535902,4.25228618 C5.32461241,3.52887043 5.095381,2.79895098 4.60036145,2.26216682 C4.1053419,1.72538266 3.39633733,1.43790751 2.66726633,1.4783682 L1.20477108,1.4783682 L1.20477108,7.04207711 Z" id="Shape"></path>
                                <path d="M7.81266261,5.20952507 C7.7122862,4.16027904 8.21540606,3.14483529 9.11101509,2.58906816 C10.0066241,2.03330103 11.1398741,2.03330103 12.0354832,2.58906816 C12.9310922,3.14483529 13.4342121,4.16027904 13.3338357,5.20952507 C13.4361219,6.2598986 12.9334612,7.27731184 12.0370581,7.83427543 C11.140655,8.39123901 10.0058433,8.39123901 9.10944019,7.83427543 C8.21303706,7.27731184 7.71037642,6.2598986 7.81266261,5.20952507 Z M12.1455615,5.20952507 C12.1455615,3.94063819 11.5755264,3.1986006 10.5751536,3.1986006 C9.57095889,3.1986006 9.00605873,3.94063819 9.00605873,5.20953807 C9.00605873,6.48859091 9.57099789,7.22490852 10.5751536,7.22490852 C11.5755394,7.22490852 12.1455615,6.48349493 12.1455615,5.20952507 L12.1455615,5.20952507 Z" id="Shape"></path>
                                <polygon id="Path" points="20.6729748 8.13894855 19.4745477 8.13894855 18.2646936 3.82762956 18.1732909 3.82762956 16.9685069 8.13894855 15.7814937 8.13894855 14.167926 2.28515857 15.3397031 2.28515857 16.3883317 6.75194406 16.4746645 6.75194406 17.6781745 2.28515857 18.7864729 2.28515857 19.989983 6.75194406 20.0813857 6.75194406 21.1249313 2.28515857 22.2801986 2.28515857"></polygon>
                                <path d="M23.6373162,2.28515857 L24.7494236,2.28515857 L24.7494236,3.21508455 L24.8357563,3.21508455 C25.1359706,2.5304131 25.8374847,2.11159285 26.5826256,2.17216294 C27.1595856,2.12878438 27.7249655,2.35011923 28.1191306,2.77367368 C28.5132957,3.19722812 28.6934717,3.77703861 28.608786,4.34939586 L28.608786,8.13888355 L27.4535188,8.13888355 L27.4535188,4.63950292 C27.4535188,3.69878698 27.0447351,3.2309575 26.1903389,3.2309575 C25.7989957,3.21273041 25.4192076,3.3663164 25.1505432,3.65144995 C24.8818789,3.9365835 24.7511331,4.32482726 24.7925834,4.71439568 L24.7925834,8.13894855 L23.6373162,8.13894855 L23.6373162,2.28515857 Z" id="Path"></path>
                                <polygon id="Path" points="30.449606 0 31.6048733 0 31.6048733 8.13893555 30.449606 8.13893555"></polygon>
                                <path d="M33.2108231,5.20952507 C33.1104467,4.16027904 33.6135665,3.14483529 34.5091756,2.58906816 C35.4047846,2.03330103 36.5380346,2.03330103 37.4336436,2.58906816 C38.3292527,3.14483529 38.8323725,4.16027904 38.7319961,5.20952507 C38.8342823,6.2598986 38.3316217,7.27731184 37.4352185,7.83427543 C36.5388154,8.39123901 35.4040038,8.39123901 34.5076006,7.83427543 C33.6111975,7.27731184 33.1085369,6.2598986 33.2108231,5.20952507 Z M37.543722,5.20952507 C37.543722,3.94063819 36.9736868,3.1986006 35.9733141,3.1986006 C34.9691194,3.1986006 34.4042192,3.94063819 34.4042192,5.20953807 C34.4042192,6.48859091 34.9691584,7.22490852 35.9733141,7.22490852 C36.9736998,7.22490852 37.543722,6.48349493 37.543722,5.20952507 L37.543722,5.20952507 Z" id="Shape"></path>
                                <path d="M39.9482072,6.48349493 C39.9482072,5.42978335 40.7327806,4.82232133 42.1254401,4.73598861 L43.7110839,4.64458591 L43.7110839,4.13931655 C43.7110839,3.52105156 43.3023003,3.17193769 42.5126568,3.17193769 C41.8677419,3.17193769 41.4208684,3.40870592 41.2926368,3.82257258 L40.1741854,3.82257258 C40.2922511,2.81710384 41.23805,2.17218894 42.5659697,2.17218894 C44.0335479,2.17218894 44.8612812,2.90278657 44.8612812,4.13931655 L44.8612812,8.13896155 L43.7491738,8.13896155 L43.7491738,7.31631122 L43.6577711,7.31631122 C43.2800555,7.9170735 42.6083543,8.26818533 41.8994748,8.23540823 C41.4025334,8.28709843 40.9069165,8.12615745 40.5351498,7.79237285 C40.1633831,7.45858826 39.9501651,6.98311361 39.9482072,6.48349493 L39.9482072,6.48349493 Z M43.7110839,5.98329555 L43.7110839,5.49389914 L42.2815956,5.58530185 C41.4754422,5.63925167 41.1098184,5.91347278 41.1098184,6.4295321 C41.1098184,6.95638139 41.5668449,7.2629724 42.1953149,7.2629724 C42.5673555,7.30063309 42.9387517,7.18569421 43.224483,6.9444677 C43.5102143,6.70324118 43.6858141,6.35638272 43.7110839,5.98329555 L43.7110839,5.98329555 Z" id="Shape"></path>
                                <path d="M46.3796373,5.20952507 C46.3796373,3.35982608 47.3305192,2.18804889 48.8095114,2.18804889 C49.5563287,2.15363817 50.2557925,2.55380643 50.6046235,3.21504555 L50.6909563,3.21504555 L50.6909563,0 L51.8462235,0 L51.8462235,8.13893555 L50.7391991,8.13893555 L50.7391991,7.21407955 L50.6477964,7.21407955 C50.272597,7.8698325 49.5645158,8.26323656 48.8095244,8.23540823 C47.3203532,8.23547323 46.3796373,7.06367004 46.3796373,5.20952507 Z M47.5730334,5.20952507 C47.5730334,6.45112503 48.1582915,7.19824561 49.1370973,7.19824561 C50.1107941,7.19824561 50.7125752,6.44034807 50.7125752,5.21460805 C50.7125752,3.99458802 50.1044762,3.22588752 49.1370973,3.22588752 C48.1645835,3.22588752 47.5729814,3.97807807 47.5729814,5.20952507 L47.5730334,5.20952507 Z" id="Shape"></path>
                                <path d="M56.625983,5.20952507 C56.5256837,4.1602104 57.0288829,3.14474095 57.9245584,2.58896525 C58.8202339,2.03318955 59.9535421,2.03318955 60.8492176,2.58896525 C61.7448931,3.14474095 62.2480923,4.1602104 62.147793,5.20952507 C62.2499493,6.2599362 61.7471966,7.2773207 60.8507489,7.83425975 C59.9543013,8.39119881 58.8194747,8.39119881 57.923027,7.83425975 C57.0265794,7.2773207 56.5238267,6.2599362 56.625983,5.20952507 L56.625983,5.20952507 Z M60.9588819,5.20952507 C60.9588819,3.94063819 60.3888467,3.1986006 59.388474,3.1986006 C58.3842793,3.1986006 57.8193791,3.94063819 57.8193791,5.20953807 C57.8193791,6.48859091 58.3843183,7.22490852 59.388474,7.22490852 C60.3888077,7.22490852 60.9588819,6.48349493 60.9588819,5.20952507 L60.9588819,5.20952507 Z" id="Shape"></path>
                                <path d="M63.697882,2.28515857 L64.8099894,2.28515857 L64.8099894,3.21508455 L64.8963221,3.21508455 C65.1965364,2.5304131 65.8980505,2.11159285 66.6431914,2.17216294 C67.2201514,2.12878438 67.7855313,2.35011923 68.1796964,2.77367368 C68.5738615,3.19722812 68.7540375,3.77703861 68.6693518,4.34939586 L68.6693518,8.13888355 L67.5140846,8.13888355 L67.5140846,4.63950292 C67.5140846,3.69878698 67.1053009,3.2309575 66.2509047,3.2309575 C65.8595615,3.21273041 65.4797734,3.3663164 65.2111091,3.65144995 C64.9424447,3.9365835 64.8116989,4.32482726 64.8531492,4.71439568 L64.8531492,8.13894855 L63.697882,8.13894855 L63.697882,2.28515857 Z" id="Path"></path>
                                <path d="M75.1972676,0.82774631 L75.1972676,2.31182149 L76.4655305,2.31182149 L76.4655305,3.28492032 L75.1972676,3.28492032 L75.1972676,6.29496954 C75.1972676,6.90815155 75.4499088,7.17665268 76.0250009,7.17665268 C76.1722327,7.17618148 76.3193166,7.16727927 76.4655305,7.14998976 L76.4655305,8.11228564 C76.2580635,8.14940145 76.0478622,8.1691475 75.8371125,8.17131844 C74.5523527,8.17131844 74.0407264,7.71936191 74.0407264,6.59075758 L74.0407264,3.28486832 L73.1114374,3.28486832 L73.1114374,2.31176949 L74.0407264,2.31176949 L74.0407264,0.82774631 L75.1972676,0.82774631 Z" id="Path"></path>
                                <path d="M78.0435434,0 L79.1886576,0 L79.1886576,3.22587452 L79.2800603,3.22587452 C79.5946954,2.53521089 80.3084872,2.11585693 81.0649545,2.17724592 C81.6386383,2.14602949 82.1963647,2.37223712 82.5862216,2.79425493 C82.9760786,3.21627274 83.1574601,3.79014501 83.080962,4.35956183 L83.080962,8.13894855 L81.9245377,8.13894855 L81.9245377,4.64455991 C81.9245377,3.70955094 81.4890392,3.23601448 80.6727848,3.23601448 C80.2708638,3.20305136 79.8748852,3.34916736 79.5907104,3.63529974 C79.3065355,3.92143212 79.1631412,4.31840437 79.1988626,4.72008966 L79.1988626,8.13894855 L78.0435954,8.13894855 L78.0435434,0 Z" id="Path"></path>
                                <path d="M89.8171371,6.55838769 C89.4931873,7.66257742 88.4246452,8.37600673 87.2806243,8.25193118 C86.50006,8.27253637 85.7498941,7.94899407 85.2291637,7.36714777 C84.7084333,6.78530146 84.4697818,6.00397321 84.5765291,5.230468 C84.4726171,4.45481314 84.7103744,3.67223292 85.2282051,3.08547101 C85.7460358,2.49870911 86.4929855,2.16550274 87.2755414,2.17217594 C88.9043451,2.17217594 89.8869599,3.28497232 89.8869599,5.12316635 L89.8869599,5.52628204 L85.7533763,5.52628204 L85.7533763,5.59102183 C85.716797,6.0254026 85.8651509,6.4550611 86.161953,6.77433089 C86.4587551,7.09360069 86.8764659,7.27285746 87.3123572,7.26801638 C87.8775588,7.33586925 88.4277439,7.05551003 88.7050297,6.55834869 L89.8171371,6.55838769 Z M85.7533503,4.67187282 L88.7100737,4.67187282 C88.7395224,4.27459467 88.599832,3.88335397 88.3254269,3.59456514 C88.0510219,3.30577631 87.6674218,3.14629687 87.2691584,3.15542774 C86.8654993,3.15035635 86.4768993,3.30851685 86.1915091,3.59403187 C85.9061189,3.87954688 85.7481284,4.26821598 85.7533763,4.67187282 L85.7533503,4.67187282 Z" id="Shape"></path>
                            </g>
                        </g>
                    </g>
                </g>
            </g>
        </g>
    </g>
</svg>