<svg height="52" viewBox="0 0 203 52" width="203" xmlns="http://www.w3.org/2000/svg"><g fill="none"><g><path d="m190.54198 0h-178.1469363c-.4767084 0-.9476969 0-1.4231444.00276899-.3979937.00259999-.7928154.01015297-1.19463108.01650995-.87292938.01027231-1.74380592.08706885-2.60506153.22972225-.8600459.14575894-1.69315023.4205561-2.47113597.81509735-.77703413.39787912-1.4870325.91488198-2.10423816 1.53225302-.62044574.61563509-1.13763517 1.32722598-1.53168102 2.10741015-.3951334.77863133-.66912018 1.61300654-.81249736 2.47430796-.14474031.86021358-.22262638 1.73034708-.23295924 2.60259154-.01206396.39857869-.01333796.79848339-.01969494 1.19711409v30.0484404c.00635698.4036487.00763098.7946874.01968194 1.1984661.01033603.8722012.0882221 1.7422912.23295924 2.6024615.14298127.8618049.41698425 1.6966591.81249736 2.475582.39387088.7776621.91113747 1.4863722 1.53169402 2.0985831.61486542.6201161 1.32532272 1.1374707 2.10423816 1.5323051.77797984.3955972 1.61099434.67203 2.47113597.8200373.86140203.1415107 1.732189.2183384 2.60506153.2298393.40181568.0088399.79663738.0139099 1.19463108.0139099.4754345.0026.946462.0026 1.4231444.0026h178.1469363c.467218 0 .941977 0 1.409195-.0026.396109 0 .802358-.00507 1.198466-.0139099.871223-.0108892 1.74037-.0877218 2.599992-.2298393.862916-.1490492 1.698917-.4254088 2.480652-.8200373.778213-.3950628 1.488014-.9124033 2.102353-1.5323051.618951-.6146096 1.137317-1.3228012 1.536075-2.0985831.392545-.7794895.66394-1.6142769.804827-2.475582.144969-.8602883.225619-1.7301848.24128-2.6024615.00507-.4037787.00507-.7948174.00507-1.1984661.010139-.4722885.010139-.941977.010139-1.4219354v-27.2071826c0-.4760714 0-.9483339-.010139-1.4193224 0-.3986307 0-.7985354-.00507-1.19716609-.015658-.87231998-.096308-1.74225996-.24128-2.60259154-.14128-.86080312-.412659-1.69511223-.804827-2.47430796-.802456-1.56379601-2.074919-2.83671376-3.638428-3.63972817-.781737-.39357712-1.617828-.66830129-2.480652-.81509735-.859473-.14328191-1.728711-.22010519-2.599992-.22978725-.396108-.00634398-.802357-.01396196-1.198466-.01649695-.467218-.00259999-.941977-.00259999-1.409195-.00259999z" fill="#000"/><path d="m10.9782433 50.8625037c-.3960827 0-.7826624-.00507-1.17557316-.01391-.81408105-.010607-1.62625939-.0814771-2.4298741-.2120293-.74933017-.1290529-1.47522969-.369115-2.153755-.7122677-.6723036-.3403094-1.28549853-.7865327-1.8160941-1.3215757-.53827582-.5287404-.98641504-1.1419891-1.32665869-1.8154441-.34399322-.6778317-.58205676-1.4043859-.7058977-2.154353-.1337385-.8058479-.20609625-1.6206874-.2164493-2.437492-.00824197-.2741691-.01903194-1.1870262-.01903194-1.1870262v-30.0306304s.01149196-.8988301.01909694-1.1628982c.00991319-.8155107.08185018-1.62908572.2151883-2.43368309.12407033-.75202135.36231813-1.4806705.7064957-2.16072298.33899337-.67298969.78464458-1.28669629 1.31967772-1.81732909.53443193-.53567441 1.14958835-.98419545 1.82303607-1.32920668.67696587-.3420502 1.40149352-.58041881 2.14930901-.7071197.80625392-.13186359 1.62125183-.20315543 2.43815508-.21327731l1.17301217-.01587295h180.9659117l1.187026.01650995c.809473.00961892 1.617067.08027475 2.415912.21136631.755386.12829017 1.487465.368322 2.172163.71220269 1.34916.6952976 2.446945 1.795324 3.13949 3.14589877.338685.67535764.573258 1.39806324.695758 2.14358904.134925.81119916.210439 1.63116753.225939 2.45336502.00377.36815882.00377.76361752.00377 1.15717822.01027.4874984.01027.9515059.01027 1.4193224v27.2071826c0 .4722885 0 .933137-.01027 1.3977554 0 .4227587 0 .8100274-.00507 1.2086061-.015164.8075258-.089419 1.6128583-.222169 2.4095422-.121303.755377-.35807 1.4876022-.701998 2.1709929-.342649.6661453-.788214 1.2740819-1.320275 1.8014042-.531073.5379183-1.14535.9867523-1.819215 1.3292457-.682801.3457906-1.413802.5867404-2.168393.7147376-.803553.1312489-1.61581.2021236-2.429952.2120293-.380768.00884-.779477.01391-1.166616.01391l-1.409195.0026z" fill="#fff"/></g><g fill="#000"><g transform="translate(45.952459 23.230067)"><path d="m14.0409814 16.4131357v-11.88214343h-.0787148l-4.86610516 11.75898183h-1.85731697l-4.87879314-11.75898183h-.07746675v11.88214343h-2.28258458v-16.14394557h2.89832758l5.22409802 12.74288357h.08886771l5.21394509-12.74288357h2.9084805v16.14394557z"/><path d="m18.2621326 13.0679345c0-2.0578933 1.5767519-3.30076724 4.3747848-3.4683887l3.2220656-.17963341v-.8950211c0-1.30888774-.8620142-2.04775334-2.3282925-2.04775334-1.1236685-.14944117-2.1829778.56057026-2.4717729 1.65672761h-2.2597567c.0672878-2.12645508 2.0477533-3.63591918 4.7988174-3.63591918 2.8081989 0 4.6655158 1.53231802 4.6655158 3.8479875v8.06721482h-2.3156174v-1.9360448h-.0558998c-.7553316 1.3370566-2.1790623 2.1564567-3.714608 2.1378691-1.0012382.0979681-1.9973052-.2313225-2.7428611-.9067647-.7455559-.6754421-1.1713027-1.6342546-1.1723752-2.6402738zm7.5968764-1.0625905v-.9064481l-2.8983536.1790094c-1.4434503.0901418-2.2597567.7160117-2.2597567 1.7227544 0 1.0295967.8505873 1.7011615 2.148035 1.7011615.7591503.0515017 1.506923-.2057843 2.0736679-.7134867.566745-.5077023.9044171-1.2227811.9364074-1.9830035z"/><path d="m38.4082842 8.69249975c-.2190101-1.33495432-1.4255161-2.27862643-2.773918-2.16962795-1.857317 0-3.08749 1.55517195-3.08749 4.005989 0 2.5060408 1.2416 4.0155179 3.1090699 4.0155179 1.3318646.1333797 2.5375783-.7926074 2.7523381-2.1137931h2.3269924c-.3010678 2.5308075-2.5629299 4.3614747-5.1009104 4.1284876-3.3565891 0-5.549097-2.2940376-5.549097-6.0302514 0-3.65941013 2.1924689-6.03088842 5.5262821-6.03088842 2.5568092-.21681733 4.8203803 1.64405409 5.1022234 4.19451437z"/><path d="m56.4342986 12.0497648h-6.1534l-1.4777312 4.3633709h-2.6063355l5.828401-16.14394557h2.7078912l5.8284011 16.14394557h-2.6508214zm-5.5160901-2.0134724h4.8775842l-2.4044852-7.082052h-.0672878z"/><path d="m73.1488903 10.5288738c0 3.6575121-1.9576117 6.0073975-4.9118001 6.0073975-1.5269942.0798777-2.9653392-.7199238-3.7032069-2.0591934h-.0558999v5.8296621h-2.4158731v-15.66402609h2.3384714v1.95761164h.0444339c.7706462-1.3308755 2.2105436-2.13033348 3.7476408-2.08076024 2.9871953 0 4.9562339 2.36132533 4.9562339 6.00930849zm-2.4832 0c0-2.38354227-1.231447-3.95012818-3.1103439-3.95012818-1.84589 0-3.0874899 1.5996058-3.0874899 3.95012818 0 2.3714783 1.2415999 3.9596571 3.0874899 3.9596571 1.8789099 0 3.1103439-1.5551459 3.1103439-3.9596571z"/><path d="m86.1031402 10.5288738c0 3.6575121-1.9576117 6.0073975-4.9118001 6.0073975-1.5269942.0798777-2.9653392-.7199238-3.7032069-2.0591934h-.0558999v5.8296621h-2.4159121v-15.66402609h2.3384714v1.95761164h.0444339c.7706483-1.33087338 2.2105443-2.13033059 3.7476408-2.08076024 2.9872343 0 4.9562729 2.36132533 4.9562729 6.00930849zm-2.483187 0c0-2.38354227-1.23146-3.95012818-3.1103569-3.95012818-1.84589 0-3.0874899 1.5996058-3.0874899 3.95012818 0 2.3714783 1.2415999 3.9596571 3.0874899 3.9596571 1.8789099 0 3.1103569-1.5551459 3.1103569-3.9596571z"/><path d="m94.6648343 11.9152023c.1790095 1.6008798 1.7341944 2.6519914 3.8593625 2.6519914 2.0363262 0 3.5013562-1.0511636 3.5013562-2.4946269 0-1.253027-.883594-2.0032935-2.9757679-2.51746785l-2.0921742-.50463236c-2.9643414-.71601168-4.3405169-2.10234017-4.3405169-4.35194386 0-2.78534495 2.4273391-4.69852273 5.8740959-4.69852273 3.4111891 0 5.7496861 1.91317778 5.8284011 4.69852273h-2.438792c-.14599-1.61103276-1.477731-2.5834816-3.423916-2.5834816-1.9461847 0-3.2779263.9838888-3.2779263 2.41591214 0 1.1413053.8506002 1.81288311 2.9313474 2.32699244l1.7786023.43672058c3.3121946.78329946 4.6883696 2.11379313 4.6883696 4.47571641 0 3.0202022-2.405759 4.9118001-6.2321146 4.9118001-3.5800714 0-5.9972445-1.847164-6.1534-4.7670845z"/><path d="m109.791247 1.85742096v2.78534495h2.238177v1.91317778h-2.238177v6.48918891c0 1.0080037.448148 1.4777312 1.432024 1.4777312.265708-.0046333.530986-.0232925.794726-.0558998v1.9017508c-.442352.0826532-.891965.1200864-1.341895.1117216-2.382892 0-3.312194-.8950211-3.312194-3.1776316v-6.74691311h-1.711327v-1.91317778h1.711327v-2.78529295z"/><path d="m113.324324 10.5288738c0-3.70384398 2.181042-6.03088842 5.582117-6.03088842 3.412488 0 5.583377 2.32699244 5.583377 6.03088842 0 3.7133729-2.159462 6.0302514-5.583377 6.0302514-3.422629 0-5.582117-2.3168785-5.582117-6.0302514zm8.7039 0c0-2.54095876-1.164185-4.04026989-3.121796-4.04026989-1.957612 0-3.121771 1.51073809-3.121771 4.04026989 0 2.5504747 1.164159 4.0383719 3.121771 4.0383719 1.957611 0 3.121796-1.4878972 3.121796-4.0383719z"/><path d="m126.481711 4.64271391h2.304203v2.00329349h.0559c.321328-1.28961088 1.502968-2.1771659 2.83104-2.12645509.278412-.0009721.556057.02926388.827733.09014171v2.25975665c-.351478-.10740133-.718131-.15671281-1.085496-.14598952-.710255-.02881384-1.397624.25424632-1.881625.77485725-.484001.52061092-.716278 1.22676021-.635843 1.93303395v6.98177035h-2.415912z"/><path d="m143.63938 12.9562129c-.324999 2.136608-2.405759 3.6029123-5.067955 3.6029123-3.423916 0-5.549097-2.2940376-5.549097-5.9743906 0-3.692417 2.136608-6.08674922 5.447541-6.08674922 3.256333 0 5.304087 2.23690273 5.304087 5.80618412v.8277333h-8.312862v.1459895c-.077613.8762383.224953 1.7435927.830736 2.3814362.605783.6378436 1.456395.9846992 2.335468.952338 1.172392.1098491 2.277727-.5633692 2.718058-1.6554666zm-8.166872-3.51342059h5.884262c.043843-.7873587-.242766-1.55731293-.790775-2.12436008-.548008-.56704716-1.30773-.87977362-2.096126-.86283521-.794629-.00473858-1.558229.30813428-2.121079.86907746-.56285.56094317-.878312 1.32347773-.876282 2.11811783z"/></g><g><g transform="translate(12.491728 10.201132)"><path d="m20.0038897 15.6551081c.0295492-2.2933921 1.231876-4.411788 3.1857436-5.6130047-1.2382064-1.76837649-3.2377701-2.8493691-5.3954894-2.91687856-2.2701047-.23828922-4.4708545 1.35839159-5.6276817 1.35839159-1.1791872 0-2.96025942-1.33473166-4.87819519-1.29527679-2.52348793.0815293-4.81903237 1.48149768-6.04676135 3.68769806-2.6144345 4.5265852-.66429784 11.1791706 1.84015702 14.8381517 1.25303993 1.7916932 2.71747217 3.7930497 4.63367894 3.7220829 1.87511391-.0777787 2.57543468-1.1956971 4.83884428-1.1956971 2.2424147 0 2.8994456 1.1956971 4.8545352 1.1505743 2.0120945-.0326559 3.2797854-1.7996492 4.4888854-3.6083073.900308-1.2766433 1.5930931-2.6876128 2.0526934-4.1806434-2.3897522-1.0107475-3.9436291-3.3523811-3.9464102-5.9470907z"/><path d="m16.3111217 4.71884166c1.0970807-1.31699294 1.6375731-3.00976957 1.5066951-4.71884166-1.67608.17603884-3.2243087.97709535-4.3362009 2.24355871-1.097944 1.24953786-1.6541593 2.88426869-1.546137 4.54413523 1.6985463.0174841 3.3112792-.74503383 4.3756428-2.06885228z"/></g><g transform="translate(46.372046 10.968234)"><path d="m2.80184189.38219876c1.02562719-.07360033 2.03020635.31661063 2.73723379 1.0632299.70702743.74661928 1.04197857 1.77094911.91266035 2.79104957 0 2.47811695-1.33934665 3.90258732-3.64989414 3.90258732h-2.80184189v-7.75686679zm-1.59707081 6.65987835h1.46249525c.73296615.04381247 1.44665678-.24497249 1.94290676-.78617011.49624997-.54119763.72222707-1.27719044.61518593-2.00362082.09925339-.72341575-.12997802-1.4533352-.62499757-1.99011936s-1.20402412-.82425931-1.93309512-.78379862h-1.46249525z"/><path d="m7.81266261 5.20952507c-.10037641-1.04924603.40274345-2.06468978 1.29835248-2.62045691.89560901-.55576713 2.02885901-.55576713 2.92446811 0 .895609.55576713 1.3987289 1.57121088 1.2983525 2.62045691.1022862 1.05037353-.4003745 2.06778677-1.2967776 2.62475036-.8964031.55696358-2.0312148.55696358-2.92761791 0-.89640313-.55696359-1.39906377-1.57437683-1.29677758-2.62475036zm4.33289889 0c0-1.26888688-.5700351-2.01092447-1.5704079-2.01092447-1.00419471 0-1.56909487.74203759-1.56909487 2.01093747 0 1.27905284.56493916 2.01537045 1.56909487 2.01537045 1.0003858 0 1.5704079-.74141359 1.5704079-2.01538345z"/><path d="m20.6729748 8.13894855h-1.1984271l-1.2098541-4.31131899h-.0914027l-1.204784 4.31131899h-1.1870132l-1.6135677-5.85378998h1.1717771l1.0486286 4.46678549h.0863328l1.20351-4.46678549h1.1082984l1.2035101 4.46678549h.0914027l1.0435456-4.46678549h1.1552673z"/><path d="m23.6373162 2.28515857h1.1121074v.92992598h.0863327c.3002143-.68467145 1.0017284-1.1034917 1.7468693-1.04292161.57696-.04337856 1.1423399.17795629 1.536505.60151074.3941651.42355444.5743411 1.00336493.4896554 1.57572218v3.78948769h-1.1552672v-3.49938063c0-.94071594-.4087837-1.40854542-1.2631799-1.40854542-.3913432-.01822709-.7711313.1353589-1.0397957.42049245-.2686643.28513355-.3994101.67337731-.3579598 1.06294573v3.42455287h-1.1552672z"/><path d="m30.449606 0h1.1552673v8.13893555h-1.1552673z"/><path d="m33.2108231 5.20952507c-.1003764-1.04924603.4027434-2.06468978 1.2983525-2.62045691.895609-.55576713 2.028859-.55576713 2.924468 0 .8956091.55576713 1.3987289 1.57121088 1.2983525 2.62045691.1022862 1.05037353-.4003744 2.06778677-1.2967776 2.62475036-.8964031.55696358-2.0312147.55696358-2.9276179 0-.8964031-.55696359-1.3990637-1.57437683-1.2967775-2.62475036zm4.3328989 0c0-1.26888688-.5700352-2.01092447-1.5704079-2.01092447-1.0041947 0-1.5690949.74203759-1.5690949 2.01093747 0 1.27905284.5649392 2.01537045 1.5690949 2.01537045 1.0003857 0 1.5704079-.74141359 1.5704079-2.01538345z"/><path d="m39.9482072 6.48349493c0-1.05371158.7845734-1.6611736 2.1772329-1.74750632l1.5856438-.0914027v-.50526936c0-.61826499-.4087836-.96737886-1.1984271-.96737886-.6449149 0-1.0917884.23676823-1.22002.65063489h-1.1184514c.1180657-1.00546874 1.0638646-1.65038364 2.3917843-1.65038364 1.4675782 0 2.2953115.73059763 2.2953115 1.96712761v3.999645h-1.1121074v-.82265033h-.0914027c-.3777156.60076228-1.0494168.95187411-1.7582963.91909701-.4969414.0516902-.9925583-.10925078-1.364325-.44303538-.3717667-.33378459-.5849847-.80925924-.5869426-1.30887792zm3.7628767-.50019938v-.48939641l-1.4294883.09140271c-.8061534.05394982-1.1717772.32817093-1.1717772.84423025 0 .52684929.4570265.8334403 1.0854965.8334403.3720406.03766069.7434368-.07727819 1.0291681-.3185047.2857313-.24122652.4613311-.58808498.4866009-.96117215z"/><path d="m46.3796373 5.20952507c0-1.84969899.9508819-3.02147618 2.4298741-3.02147618.7468173-.03441072 1.4462811.36575754 1.7951121 1.02699666h.0863328v-3.21504555h1.1552672v8.13893555h-1.1070244v-.924856h-.0914027c-.3751994.65575295-1.0832806 1.04915701-1.838272 1.02132868-1.4891712.000065-2.4298871-1.17173819-2.4298871-3.02588316zm1.1933961 0c0 1.24159996.5852581 1.98872054 1.5640639 1.98872054.9736968 0 1.5754779-.75789754 1.5754779-1.98363756 0-1.22002003-.608099-1.98872053-1.5754779-1.98872053-.9725138 0-1.5641159.75219055-1.5641159 1.98363755z"/><path d="m56.625983 5.20952507c-.1002993-1.04931467.4028999-2.06478412 1.2985754-2.62055982s2.0289837-.5557757 2.9246592 0 1.3988747 1.57124515 1.2985754 2.62055982c.1021563 1.05041113-.4005964 2.06779563-1.2970441 2.62473468-.8964476.55693906-2.0312742.55693906-2.9277219 0-.8964476-.55693905-1.3992003-1.57432355-1.297044-2.62473468zm4.3328989 0c0-1.26888688-.5700352-2.01092447-1.5704079-2.01092447-1.0041947 0-1.5690949.74203759-1.5690949 2.01093747 0 1.27905284.5649392 2.01537045 1.5690949 2.01537045 1.0003337 0 1.5704079-.74141359 1.5704079-2.01538345z"/><path d="m63.697882 2.28515857h1.1121074v.92992598h.0863327c.3002143-.68467145 1.0017284-1.1034917 1.7468693-1.04292161.57696-.04337856 1.1423399.17795629 1.536505.60151074.3941651.42355444.5743411 1.00336493.4896554 1.57572218v3.78948769h-1.1552672v-3.49938063c0-.94071594-.4087837-1.40854542-1.2631799-1.40854542-.3913432-.01822709-.7711313.1353589-1.0397956.42049245-.2686644.28513355-.3994102.67337731-.3579599 1.06294573v3.42455287h-1.1552672z"/><path d="m75.1972676.82774631v1.48407518h1.2682629v.97309883h-1.2682629v3.01004922c0 .61318201.2526412.88168314.8277333.88168314.1472318-.0004712.2943157-.00937341.4405296-.02666292v.96229588c-.207467.03711581-.4176683.05686186-.628418.0590328-1.2847598 0-1.7963861-.45195653-1.7963861-1.58056086v-3.30588926h-.929289v-.97309883h.929289v-1.48402318z"/><path d="m78.0435434 0h1.1451142v3.22587452h.0914027c.3146351-.69066363 1.0284269-1.11001759 1.7848942-1.0486286.5736838-.03121643 1.1314102.1949912 1.5212671.61700901.389857.42201781.5712385.99589008.4947404 1.5653069v3.77938672h-1.1564243v-3.49438864c0-.93500897-.4354985-1.40854543-1.2517529-1.40854543-.401921-.03296312-.7978996.11315288-1.0820744.39928526-.2841749.28613238-.4275692.68310463-.3918478 1.08478992v3.41885889h-1.1552672z"/><path d="m89.8171371 6.55838769c-.3239498 1.10418973-1.3924919 1.81761904-2.5365128 1.69354349-.7805643.02060519-1.5307302-.30293711-2.0514606-.88478341-.5207304-.58184631-.7593819-1.36317456-.6526346-2.13667977-.103912-.77565486.1338453-1.55823508.651676-2.14499699.5178307-.5867619 1.2647804-.91996827 2.0473363-.91329507 1.6288037 0 2.6114185 1.11279638 2.6114185 2.95099041v.40311569h-4.1335836v.06473979c-.0365793.43438077.1117746.86403927.4085767 1.18330906.2968021.3192698.7145129.49852657 1.1504042.49368549.5652016.06785287 1.1153867-.21250635 1.3926725-.70966769zm-4.0637868-1.88651487h2.9567234c.0294487-.39727815-.1102417-.78851885-.3846468-1.07730768-.274405-.28878883-.6580051-.44826827-1.0562685-.4391374-.4036591-.00507139-.7922591.15308911-1.0776493.43860413-.2853902.28551501-.4433807.67418411-.4381328 1.07784095z"/></g></g></g></g></svg>