<svg height="20" viewBox="0 0 33 20" width="33" xmlns="http://www.w3.org/2000/svg"><path d="m58 37.109375c1.03125 0 1.84375-.890625 1.84375-1.90625 0-1.046875-.8125-1.890625-1.84375-1.890625h-29.171875c-1.03125 0-1.84375.875-1.84375 1.890625 0 1 .828125 1.90625 1.84375 1.90625zm0 7.53125c1.03125 0 1.84375-.890625 1.84375-1.90625 0-1.046875-.8125-1.90625-1.84375-1.90625h-29.171875c-1.03125 0-1.84375.875-1.84375 1.90625 0 .984375.828125 1.90625 1.84375 1.90625zm0 7.53125c1.03125 0 1.84375-.890625 1.84375-1.90625 0-1.046875-.8125-1.90625-1.84375-1.90625h-29.171875c-1.03125 0-1.84375.875-1.84375 1.90625 0 1 .828125 1.90625 1.84375 1.90625z" fill="#fff" opacity=".5" transform="translate(-27 -33)"/></svg>