<?xml version="1.0" encoding="UTF-8"?>
<svg width="33px" height="20px" viewBox="0 0 33 20" version="1.1" xmlns="http://www.w3.org/2000/svg" xmlns:xlink="http://www.w3.org/1999/xlink">
    <title>􀌇</title>
    <g id="Assets" stroke="none" stroke-width="1" fill="none" fill-rule="evenodd" opacity="0.5">
        <g id="Group-5" transform="translate(-27.000000, -33.000000)" fill="#FFFFFF" fill-rule="nonzero">
            <path d="M58,37.109375 C59.03125,37.109375 59.84375,36.21875 59.84375,35.203125 C59.84375,34.15625 59.03125,33.3125 58,33.3125 L28.828125,33.3125 C27.796875,33.3125 26.984375,34.1875 26.984375,35.203125 C26.984375,36.203125 27.8125,37.109375 28.828125,37.109375 L58,37.109375 Z M58,44.640625 C59.03125,44.640625 59.84375,43.75 59.84375,42.734375 C59.84375,41.6875 59.03125,40.828125 58,40.828125 L28.828125,40.828125 C27.796875,40.828125 26.984375,41.703125 26.984375,42.734375 C26.984375,43.71875 27.8125,44.640625 28.828125,44.640625 L58,44.640625 Z M58,52.171875 C59.03125,52.171875 59.84375,51.28125 59.84375,50.265625 C59.84375,49.21875 59.03125,48.359375 58,48.359375 L28.828125,48.359375 C27.796875,48.359375 26.984375,49.234375 26.984375,50.265625 C26.984375,51.265625 27.8125,52.171875 28.828125,52.171875 L58,52.171875 Z" id="􀌇"></path>
        </g>
    </g>
</svg>