<?xml version="1.0" encoding="UTF-8"?>
<svg width="15px" height="15px" viewBox="0 0 15 15" version="1.1" xmlns="http://www.w3.org/2000/svg" xmlns:xlink="http://www.w3.org/1999/xlink">
    <title>􀋄</title>
    <g id="Web" stroke="none" stroke-width="1" fill="none" fill-rule="evenodd">
        <g id="Artboard" transform="translate(-1293.000000, -4140.000000)" fill="#FF9F0A" fill-rule="nonzero">
            <g id="Group-19" transform="translate(1202.000000, 4120.000000)">
                <path d="M102.575424,34.0454687 C102.835678,33.8486914 102.892807,33.5249609 102.734115,33.061582 L101.407455,29.1133398 L104.797104,26.6758398 C105.190658,26.396543 105.34935,26.1045508 105.247787,25.787168 C105.146225,25.4824805 104.847885,25.3301367 104.359115,25.3364844 L100.2014,25.361875 L98.9382169,21.3945898 C98.7858731,20.9248633 98.5573575,20.69 98.2272794,20.69 C97.9035489,20.69 97.6750333,20.9248633 97.5226895,21.3945898 L96.2595059,25.361875 L92.1017911,25.3364844 C91.6130216,25.3301367 91.3146817,25.4824805 91.2131192,25.787168 C91.1052091,26.1045508 91.2702481,26.396543 91.6638028,26.6758398 L95.0534513,29.1133398 L93.7267911,33.061582 C93.5680997,33.5249609 93.6252286,33.8486914 93.8854825,34.0454687 C94.1457364,34.2485937 94.4758145,34.1787695 94.8693692,33.893125 L98.2272794,31.4238867 L101.591537,33.893125 C101.985092,34.1787695 102.308822,34.2485937 102.575424,34.0454687 Z M101.604233,32.7759375 L98.5510098,30.4463477 C98.4494473,30.3701758 98.3415372,30.3257422 98.2272794,30.3320898 L98.2272794,22.2324805 C98.2463223,22.2324805 98.2590177,22.2451758 98.2653653,22.2832617 L99.3698575,25.9585547 C99.452377,26.2188086 99.6174161,26.3267187 99.87767,26.3203711 L103.718002,26.2505469 C103.756088,26.2505469 103.768783,26.2505469 103.775131,26.2695898 C103.781479,26.2886328 103.768783,26.3013281 103.743393,26.3203711 L100.58226,28.5039648 C100.360092,28.6563086 100.309311,28.8530859 100.398178,29.1006445 L101.661361,32.7315039 C101.667709,32.7695898 101.674057,32.7759375 101.661361,32.7886328 C101.648666,32.8076758 101.629623,32.7949805 101.604233,32.7759375 Z" id="􀋄"></path>
            </g>
        </g>
    </g>
</svg>