<svg height="36" viewBox="0 0 36 36" width="36" xmlns="http://www.w3.org/2000/svg"><path d="m42.9296875 60.859375c9.8085937 0 17.9296875-8.1210938 17.9296875-17.9296875 0-9.7910156-8.1386719-17.9296875-17.9472656-17.9296875-9.7910156 0-17.9121094 8.1386719-17.9121094 17.9296875 0 9.8085937 8.1386719 17.9296875 17.9296875 17.9296875zm6.4160156-8.9121094-5.9941406-5.9941406c-.28125-.2988281-.6328125-.28125-.9140625 0l-6.0117188 5.9941406c-1.0898437 1.0898438-2.3378906.1054688-1.8984374-1.0371094l7.1015624-18.1054687c.4746094-1.1777344 2.0390626-1.2128906 2.5136719-.0351563l7.1015625 18.140625c.4570313 1.1425782-.8085937 2.1269532-1.8984375 1.0371094z" fill="#fff" opacity=".5" transform="translate(-25 -25)"/></svg>