<?xml version="1.0" encoding="UTF-8"?>
<svg width="20px" height="16px" viewBox="0 0 20 16" version="1.1" xmlns="http://www.w3.org/2000/svg" xmlns:xlink="http://www.w3.org/1999/xlink">
    <title>􀊯</title>
    <g id="Web" stroke="none" stroke-width="1" fill="none" fill-rule="evenodd">
        <g id="Artboard" transform="translate(-924.000000, -604.000000)" fill="#FFFFFF" fill-rule="nonzero">
            <g id="Group-8" transform="translate(908.000000, 593.000000)">
                <g id="Group" transform="translate(15.500000, 10.000000)">
                    <path d="M17.7805176,11.2900391 L19.6262207,8.71923828 C19.9924316,8.22119141 19.8239746,7.75244141 19.2233887,7.75244141 L18.1760254,7.75244141 C17.7219238,4.05371094 14.4919434,1.05810547 10.5661621,1.05810547 C8.48608398,1.05810547 6.58911133,1.94433594 5.25610352,3.31396484 C4.83862305,3.69482422 4.83862305,4.22216797 5.13891602,4.53710938 C5.4465332,4.87402344 5.94458008,4.93261719 6.40600586,4.53710938 C7.45336914,3.46044922 8.93286133,2.77929688 10.5661621,2.77929688 C13.5837402,2.77929688 16.0007324,4.9765625 16.4401855,7.75244141 L15.2976074,7.75244141 C14.7116699,7.75244141 14.5358887,8.22119141 14.8947754,8.71923828 L16.7478027,11.2900391 C17.0334473,11.6928711 17.4875488,11.6928711 17.7805176,11.2900391 Z M10.5661621,16.3730469 C12.6608887,16.3730469 14.5578613,15.4868164 15.8908691,14.1171875 C16.3010254,13.7290039 16.3010254,13.2016602 16.0080566,12.8867188 C15.6931152,12.5498047 15.2023926,12.4985352 14.7336426,12.894043 C13.6936035,13.9707031 12.2141113,14.6518555 10.5661621,14.6518555 C7.5559082,14.6518555 5.13891602,12.4619141 4.69946289,9.67871094 L5.82739258,9.67871094 C6.4206543,9.67871094 6.58911133,9.20996094 6.23022461,8.71923828 L4.38452148,6.14111328 C4.09155273,5.73828125 3.63745117,5.73828125 3.35180664,6.14111328 L1.4987793,8.71191406 C1.13989258,9.20996094 1.30102539,9.67871094 1.90161133,9.67871094 L2.96362305,9.67871094 C3.41772461,13.3774414 6.64770508,16.3730469 10.5661621,16.3730469 Z" id="􀊯"></path>
                </g>
            </g>
        </g>
    </g>
</svg>