<svg height="32" viewBox="0 0 26 32" width="26" xmlns="http://www.w3.org/2000/svg"><path d="m38.5901639 35.4634471c.6096589 0 .1200709-.5104121.1200709-1.1058928v-4.1258308l-.0850687-2.1267169.9499336 1.006646 2.1550731 2.2968543c.1984936.2268498.4962339.3402747.7656181.3402747.5813026 0 1.0350022-.4253434 1.0350022-1.006646 0-.2977404-.127603-.5245902-.3402747-.7372619l-4.7922021-4.6220647c-.2835622-.2835622-.5245901-.382809-.8081524-.382809-.2977403 0-.5387682.0992468-.8223305.382809l-4.792202 4.6220647c-.2126717.2126717-.3402747.4395215-.3402747.7372619 0 .5813026.4253433 1.006646 1.0208241 1.006646.2693841 0 .5813026-.1134249.7797962-.3402747l2.1550731-2.2968543.9499335-1.006646-.0850687 2.1267169v4.1258308c0 .5954807 1.5245902 1.1058928 2.134249 1.1058928zm7.1240585 21.5365529c2.9632255 0 4.4519274-1.4745237 4.4519274-4.3952149v-13.866194c0-2.9206912-1.4887019-4.3952149-4.4519274-4.3952149h-6.677891v10.4492689c0 .7797962-.6663713 1.4178113-1.4461675 1.4178113-.7939743 0-1.4603456-.6380151-1.4603456-1.4178113v-10.4492689h-6.677891c-2.9632255 0-4.4519273 1.4745237-4.4519273 4.3952149v13.866194c0 2.9206912 1.4887018 4.3952149 4.4519273 4.3952149z" fill="#fff" opacity=".5" transform="translate(-25 -25)"/></svg>