<?xml version="1.0" encoding="UTF-8"?>
<svg width="40px" height="41px" viewBox="0 0 40 41" version="1.1" xmlns="http://www.w3.org/2000/svg" xmlns:xlink="http://www.w3.org/1999/xlink">
    <title>􀆮</title>
    <g id="Web" stroke="none" stroke-width="1" fill="none" fill-rule="evenodd" opacity="0.5">
        <g id="Artboard" transform="translate(-1001.000000, -856.000000)" fill="#FFFFFF" fill-rule="nonzero">
            <g id="Group-3" transform="translate(976.000000, 831.000000)">
                <path d="M44.9907621,32.0946882 C45.8775982,32.0946882 46.6166282,31.3556582 46.6166282,30.4872979 L46.6166282,26.6073903 C46.6166282,25.73903 45.8775982,25 44.9907621,25 C44.1224018,25 43.3833718,25.73903 43.3833718,26.6073903 L43.3833718,30.4872979 C43.3833718,31.3556582 44.1224018,32.0946882 44.9907621,32.0946882 Z M56.408776,35.9191686 L59.1616628,33.1662818 C59.7898383,32.5381062 59.7898383,31.5034642 59.1616628,30.8752887 C58.551963,30.2655889 57.517321,30.2655889 56.9076212,30.8752887 L54.1177829,33.6466513 C53.5080831,34.2748268 53.5080831,35.3094688 54.1177829,35.9191686 C54.7459584,36.5473441 55.7806005,36.5658199 56.408776,35.9191686 Z M35.8452656,35.9191686 C36.4734411,35.3279446 36.4734411,34.256351 35.8637413,33.6466513 L33.1108545,30.8752887 C32.5196305,30.2840647 31.4665127,30.2655889 30.8383372,30.8752887 C30.2286374,31.4849885 30.2286374,32.5381062 30.8198614,33.147806 L33.5727483,35.9191686 C34.2009238,36.5473441 35.2355658,36.5473441 35.8452656,35.9191686 Z M44.9907621,54.4872979 C50.1270208,54.4872979 54.3949192,50.2009238 54.3949192,45.0461894 C54.3949192,39.891455 50.1270208,35.6235566 44.9907621,35.6235566 C39.8360277,35.6235566 35.5681293,39.891455 35.5681293,45.0461894 C35.5681293,50.2009238 39.8360277,54.4872979 44.9907621,54.4872979 Z M63.3741339,46.6535797 C64.26097,46.6535797 65,45.9145497 65,45.0461894 C65,44.1778291 64.26097,43.4387991 63.3741339,43.4387991 L59.5127021,43.4387991 C58.6443418,43.4387991 57.9053118,44.1778291 57.9053118,45.0461894 C57.9053118,45.9145497 58.6443418,46.6535797 59.5127021,46.6535797 L63.3741339,46.6535797 Z M30.4688222,46.6535797 C31.3556582,46.6535797 32.0946882,45.9145497 32.0946882,45.0461894 C32.0946882,44.1778291 31.3556582,43.4387991 30.4688222,43.4387991 L26.6073903,43.4387991 C25.73903,43.4387991 25,44.1778291 25,45.0461894 C25,45.9145497 25.73903,46.6535797 26.6073903,46.6535797 L30.4688222,46.6535797 Z M59.1616628,59.2170901 C59.7898383,58.6073903 59.7898383,57.5727483 59.1616628,56.9445727 L56.3903002,54.1916859 C55.7806005,53.5819861 54.7459584,53.5819861 54.1177829,54.1916859 C53.5080831,54.8013857 53.5080831,55.8360277 54.1177829,56.4642032 L56.9076212,59.2355658 C57.517321,59.8452656 58.551963,59.8267898 59.1616628,59.2170901 Z M33.0923788,59.2170901 L35.8452656,56.4642032 C36.4734411,55.8545035 36.4734411,54.8198614 35.8637413,54.1916859 C35.2540416,53.5819861 34.2009238,53.5819861 33.5727483,54.1916859 L30.8198614,56.926097 C30.2101617,57.5357968 30.2101617,58.5889145 30.8013857,59.1986143 C31.4110855,59.8083141 32.4642032,59.8267898 33.0923788,59.2170901 Z M44.9907621,65.0923788 C45.8775982,65.0923788 46.6166282,64.3533487 46.6166282,63.4849885 L46.6166282,59.6050808 C46.6166282,58.7367206 45.8775982,57.9976905 44.9907621,57.9976905 C44.1224018,57.9976905 43.3833718,58.7367206 43.3833718,59.6050808 L43.3833718,63.4849885 C43.3833718,64.3533487 44.1224018,65.0923788 44.9907621,65.0923788 Z" id="􀆮"></path>
            </g>
        </g>
    </g>
</svg>