<svg height="41" viewBox="0 0 40 41" width="40" xmlns="http://www.w3.org/2000/svg"><path d="m44.9907621 32.0946882c.8868361 0 1.6258661-.73903 1.6258661-1.6073903v-3.8799076c0-.8683603-.73903-1.6073903-1.6258661-1.6073903-.8683603 0-1.6073903.73903-1.6073903 1.6073903v3.8799076c0 .8683603.73903 1.6073903 1.6073903 1.6073903zm11.4180139 3.8244804 2.7528868-2.7528868c.6281755-.6281756.6281755-1.6628176 0-2.2909931-.6096998-.6096998-1.6443418-.6096998-2.2540416 0l-2.7898383 2.7713626c-.6096998.6281755-.6096998 1.6628175 0 2.2725173.6281755.6281755 1.6628176.6466513 2.2909931 0zm-20.5635104 0c.6281755-.591224.6281755-1.6628176.0184757-2.2725173l-2.7528868-2.7713626c-.591224-.591224-1.6443418-.6096998-2.2725173 0-.6096998.6096998-.6096998 1.6628175-.0184758 2.2725173l2.7528869 2.7713626c.6281755.6281755 1.6628175.6281755 2.2725173 0zm9.1454965 18.5681293c5.1362587 0 9.4041571-4.2863741 9.4041571-9.4411085s-4.2678984-9.4226328-9.4041571-9.4226328c-5.1547344 0-9.4226328 4.2678984-9.4226328 9.4226328s4.2678984 9.4411085 9.4226328 9.4411085zm18.3833718-7.8337182c.8868361 0 1.6258661-.73903 1.6258661-1.6073903s-.73903-1.6073903-1.6258661-1.6073903h-3.8614318c-.8683603 0-1.6073903.73903-1.6073903 1.6073903s.73903 1.6073903 1.6073903 1.6073903zm-32.9053117 0c.886836 0 1.625866-.73903 1.625866-1.6073903s-.73903-1.6073903-1.625866-1.6073903h-3.8614319c-.8683603 0-1.6073903.73903-1.6073903 1.6073903s.73903 1.6073903 1.6073903 1.6073903zm28.6928406 12.5635104c.6281755-.6096998.6281755-1.6443418 0-2.2725174l-2.7713626-2.7528868c-.6096997-.6096998-1.6443418-.6096998-2.2725173 0-.6096998.6096998-.6096998 1.6443418 0 2.2725173l2.7898383 2.7713626c.6096998.6096998 1.6443418.591224 2.2540416-.0184757zm-26.069284 0 2.7528868-2.7528869c.6281755-.6096997.6281755-1.6443418.0184757-2.2725173-.6096997-.6096998-1.6628175-.6096998-2.290993 0l-2.7528869 2.7344111c-.6096997.6096998-.6096997 1.6628175-.0184757 2.2725173.6096998.6096998 1.6628175.6281755 2.2909931.0184758zm11.8983833 5.8752887c.8868361 0 1.6258661-.7390301 1.6258661-1.6073903v-3.8799077c0-.8683602-.73903-1.6073903-1.6258661-1.6073903-.8683603 0-1.6073903.7390301-1.6073903 1.6073903v3.8799077c0 .8683602.73903 1.6073903 1.6073903 1.6073903z" fill="#fff" opacity=".5" transform="translate(-25 -25)"/></svg>