<?xml version="1.0" encoding="UTF-8"?>
<svg width="14px" height="14px" viewBox="0 0 14 14" version="1.1" xmlns="http://www.w3.org/2000/svg" xmlns:xlink="http://www.w3.org/1999/xlink">
    <title>􀋃</title>
    <g id="Web" stroke="none" stroke-width="1" fill="none" fill-rule="evenodd">
        <g id="Artboard" transform="translate(-391.000000, -3647.000000)" fill="#FF9F0A" fill-rule="nonzero">
            <g id="Group-19" transform="translate(300.000000, 3627.000000)">
                <path d="M102.289957,33.6699219 C102.664957,33.3828125 102.746988,32.9082031 102.547769,32.3398438 L101.405191,28.9589844 L104.311441,26.8847656 C104.809488,26.5273438 105.032144,26.0996094 104.8798,25.6425781 C104.721597,25.1914062 104.299722,24.9746094 103.684488,24.9804688 L100.133707,25.0097656 L99.0497222,21.6054688 C98.8622222,21.0195312 98.5282378,20.6855469 98.0536284,20.6855469 C97.5790191,20.6855469 97.2450347,21.0195312 97.0575347,21.6054688 L95.9735503,25.0097656 L92.4169097,24.9804688 C91.8133941,24.9746094 91.3856597,25.1914062 91.2333159,25.6367188 C91.0692534,26.0996094 91.2977691,26.5273438 91.8016753,26.8847656 L94.7020659,28.9589844 L93.5594878,32.3398438 C93.3661284,32.9082031 93.4423003,33.3828125 93.8231597,33.6699219 C94.2040191,33.9628906 94.6786284,33.8808594 95.1766753,33.5117188 L98.0536284,31.3964844 L100.930582,33.5117188 C101.434488,33.8808594 101.903238,33.9628906 102.289957,33.6699219 Z" id="􀋃"></path>
            </g>
        </g>
    </g>
</svg>