<?xml version="1.0" encoding="UTF-8"?>
<svg width="36px" height="36px" viewBox="0 0 36 36" version="1.1" xmlns="http://www.w3.org/2000/svg" xmlns:xlink="http://www.w3.org/1999/xlink">
    <title>􀐬</title>
    <g id="Web" stroke="none" stroke-width="1" fill="none" fill-rule="evenodd" fill-opacity="0.5">
        <g id="Artboard" transform="translate(-1339.000000, -856.000000)" fill="#FFFFFF" fill-rule="nonzero">
            <g id="2x_wall" transform="translate(1314.000000, 831.000000)">
                <path d="M43,61 C52.8470588,61 61,52.8294118 61,43 C61,33.1529412 52.8294118,25 42.9823529,25 C33.1529412,25 25,33.1529412 25,43 C25,52.8294118 33.1705882,61 43,61 Z M42.9823529,44.9058824 L33.7705882,44.9058824 C33.0647059,44.9058824 32.5352941,44.3764706 32.5352941,43.6705882 C32.5352941,42.9823529 33.0647059,42.4529412 33.7705882,42.4529412 L41.7647059,42.4529412 L41.7647059,31.7764706 C41.7647059,31.0882353 42.2941176,30.5588235 42.9823529,30.5588235 C43.6705882,30.5588235 44.2176471,31.0882353 44.2176471,31.7764706 L44.2176471,43.6705882 C44.2176471,44.3764706 43.6705882,44.9058824 42.9823529,44.9058824 Z" id="􀐬"></path>
            </g>
        </g>
    </g>
</svg>