<svg height="36" viewBox="0 0 36 36" width="36" xmlns="http://www.w3.org/2000/svg"><path d="m43 61c9.8470588 0 18-8.1705882 18-18 0-9.8470588-8.1705882-18-18.0176471-18-9.8294117 0-17.9823529 8.1529412-17.9823529 18 0 9.8294118 8.1705882 18 18 18zm-.0176471-16.0941176h-9.2117647c-.7058823 0-1.2352941-.5294118-1.2352941-1.2352942 0-.6882353.5294118-1.217647 1.2352941-1.217647h7.9941177v-10.6764706c0-.6882353.5294117-1.2176471 1.217647-1.2176471s1.2352942.5294118 1.2352942 1.2176471v11.8941176c0 .7058824-.5470589 1.2352942-1.2352942 1.2352942z" fill="#fff" fill-opacity=".5" transform="translate(-25 -25)"/></svg>